HIERARCHY
ROOT Hips
{
  OFFSET 0.000000 0.000000 0.000000
  CHANNELS 6 Xposition Yposition Zposition Xrotation Yrotation Zrotation
  JOINT Spine
  {
    OFFSET 1.029272 24.139234 -3.309675
    CHANNELS 3 Xrotation Yrotation Zrotation
    JOINT Chest
    {
      OFFSET 1.029272 24.139234 -3.309675
      CHANNELS 3 Xrotation Yrotation Zrotation
      JOINT Neck
      {
        OFFSET -1.131418 6.442996 -7.943566
        CHANNELS 3 Xrotation Yrotation Zrotation
        JOINT Head
        {
          OFFSET -1.916145 7.107403 -12.164473
          CHANNELS 3 Xrotation Yrotation Zrotation
          End Site
          {
            OFFSET -0.574843 2.132221 -3.649342
          }
        }
      }
      JOINT LeftCollar
      {
        OFFSET 3.000000 4.000000 0.000000
        CHANNELS 3 Xrotation Yrotation Zrotation
        JOINT LeftShoulder
        {
          OFFSET 15.824782 -3.385161 -4.490161
          CHANNELS 3 Xrotation Yrotation Zrotation
          JOINT LeftArm
          {
            OFFSET 6.638871 -21.899489 2.577768
            CHANNELS 3 Xrotation Yrotation Zrotation
            JOINT LeftForeArm
            {
              OFFSET 1.662469 -23.769893 2.728891
              CHANNELS 3 Xrotation Yrotation Zrotation
              JOINT LeftHand
              {
                OFFSET -1.157011 -3.989585 -0.720753
                CHANNELS 3 Xrotation Yrotation Zrotation
                End Site
                {
                  OFFSET -0.347103 -1.196876 -0.216226
                }
              }
            }
          }
        }
      }
      JOINT RightCollar
      {
        OFFSET -3.000000 4.000000 0.000000
        CHANNELS 3 Xrotation Yrotation Zrotation
        JOINT RightShoulder
        {
          OFFSET -15.824782 3.385161 4.490161
          CHANNELS 3 Xrotation Yrotation Zrotation
          JOINT RightArm
          {
            OFFSET -4.830150 -29.706995 -0.659229
            CHANNELS 3 Xrotation Yrotation Zrotation
            JOINT RightForeArm
            {
              OFFSET -6.735460 -18.902062 -7.831287
              CHANNELS 3 Xrotation Yrotation Zrotation
              JOINT RightHand
              {
                OFFSET 1.562441 -2.563879 -3.933201
                CHANNELS 3 Xrotation Yrotation Zrotation
                End Site
                {
                  OFFSET 0.468732 -0.769164 -1.179960
                }
              }
            }
          }
        }
      }
    }
  }
  JOINT LeftUpLeg
  {
    OFFSET 8.875314 -0.675327 -0.291526
    CHANNELS 3 Xrotation Yrotation Zrotation
    JOINT LeftLeg
    {
      OFFSET -2.390302 -38.516964 -5.036820
      CHANNELS 3 Xrotation Yrotation Zrotation
      JOINT LeftFoot
      {
        OFFSET -8.730226 -38.998584 -0.067483
        CHANNELS 3 Xrotation Yrotation Zrotation
        End Site
        {
          OFFSET -2.619068 -11.699575 -0.020245
        }
      }
    }
  }
  JOINT RightUpLeg
  {
    OFFSET -8.875314 0.675327 0.291526
    CHANNELS 3 Xrotation Yrotation Zrotation
    JOINT RightLeg
    {
      OFFSET 8.015065 -34.486904 0.724164
      CHANNELS 3 Xrotation Yrotation Zrotation
      JOINT RightFoot
      {
        OFFSET 4.389306 -41.028927 12.321156
        CHANNELS 3 Xrotation Yrotation Zrotation
        End Site
        {
          OFFSET 1.316792 -12.308678 3.696347
        }
      }
    }
  }
}
MOTION
Frames: 9
Frame Time: 0.083333
-0.427997 59.899431 0.178710 1.978502 -0.019808 0.519184 0.000000 0.000000 0.000000 -3.099142 0.489075 -0.023658 0.111810 0.885326 0.397253 -172.716688 -19.538122 -12.278460 5.272731 23.005275 -2.303097 6.083363 -20.603216 -0.545685 -8.644348 -3.902023 -1.412528 0.000000 0.000000 0.000000 0.000000 0.000000 0.000000 5.272731 23.005275 -2.303097 0.000000 0.000000 0.000000 0.000000 0.000000 0.000000 0.000000 0.000000 0.000000 0.000000 0.000000 0.000000 -15.270245 0.841214 7.959885 -1.870014 6.066754 7.502266 0.000000 0.000000 0.000000 -3.544898 -1.102861 -21.962990 14.832201 3.085644 -6.863030 0.000000 0.000000 0.000000
-2.174767 59.730389 -0.058473 1.994868 -0.021209 0.512796 0.000000 0.000000 0.000000 -3.108948 0.491346 -0.016907 0.111877 0.886185 0.397564 -172.675018 -19.445816 -12.508090 5.270732 22.982291 -2.283444 6.046945 -20.661676 -0.546908 -8.455065 -3.887401 -1.450904 0.000000 0.000000 0.000000 0.000000 0.000000 0.000000 5.270732 22.982291 -2.283444 0.000000 0.000000 0.000000 0.000000 0.000000 0.000000 0.000000 0.000000 0.000000 0.000000 0.000000 0.000000 -15.562024 0.881620 7.948074 -1.532351 6.002115 7.048770 0.000000 0.000000 0.000000 -3.397137 -1.054648 -21.871617 14.476868 2.855817 -6.632012 0.000000 0.000000 0.000000
-6.290921 59.200223 -0.612270 1.995172 -0.021245 0.512591 0.000000 0.000000 0.000000 -3.108989 0.491422 -0.016689 0.111839 0.886197 0.397566 -172.432181 -20.963834 -10.633998 5.270443 22.980567 -2.282708 5.107687 -19.729257 -0.279587 -6.457432 -3.388614 -2.434677 0.000000 0.000000 0.000000 0.000000 0.000000 0.000000 5.270443 22.980567 -2.282708 0.000000 0.000000 0.000000 0.000000 0.000000 0.000000 0.000000 0.000000 0.000000 0.000000 0.000000 0.000000 -15.275726 0.593325 10.157236 -11.800863 13.017334 10.581690 0.000000 0.000000 0.000000 -3.966476 -0.418265 -19.695083 12.919730 1.666762 -5.419254 0.000000 0.000000 0.000000
-11.392252 58.351498 -1.538963 3.670634 -0.136984 0.165272 0.000000 0.000000 0.000000 -3.991835 0.645011 0.289140 -0.017327 0.959489 0.449475 -171.839757 -21.527063 -10.791023 4.629493 21.790401 -1.357743 4.289836 -18.335029 -0.074277 -2.598946 -2.892785 -3.138120 0.000000 0.000000 0.000000 0.000000 0.000000 0.000000 4.629493 21.790401 -1.357743 0.000000 0.000000 0.000000 0.000000 0.000000 0.000000 0.000000 0.000000 0.000000 0.000000 0.000000 0.000000 -16.104097 0.543859 11.326049 -18.031401 17.900286 11.046520 0.000000 0.000000 0.000000 -4.205403 -0.047685 -16.752357 10.883170 0.514909 -2.863851 0.000000 0.000000 0.000000
-15.837495 57.482300 -2.819302 4.483201 -0.212279 -0.223776 0.000000 0.000000 0.000000 -4.507057 0.789097 0.725577 0.014532 0.987317 0.447270 -171.601143 -21.438703 -11.196680 4.710324 20.242908 0.095238 3.796393 -14.912214 -0.102854 1.769355 -2.478506 -2.771089 0.000000 0.000000 0.000000 0.000000 0.000000 0.000000 4.710324 20.242908 0.095238 0.000000 0.000000 0.000000 0.000000 0.000000 0.000000 0.000000 0.000000 0.000000 0.000000 0.000000 0.000000 -14.803999 0.374568 10.857640 -20.758817 18.821782 11.108049 0.000000 0.000000 0.000000 -5.412976 -0.609679 -13.654783 11.979588 1.767224 -1.462447 0.000000 0.000000 0.000000
-18.824326 57.060261 -4.193696 4.064465 -0.223702 -0.506432 0.000000 0.000000 0.000000 -3.979000 0.839718 1.040394 0.013014 0.958818 0.419741 -172.273289 -19.741073 -11.245886 4.294266 16.594420 1.122167 2.551189 -10.170137 -0.319787 4.664365 -1.849394 -2.114203 0.000000 0.000000 0.000000 0.000000 0.000000 0.000000 4.294266 16.594420 1.122167 0.000000 0.000000 0.000000 0.000000 0.000000 0.000000 0.000000 0.000000 0.000000 0.000000 0.000000 0.000000 -12.476536 0.203532 9.817246 -18.008321 14.842886 8.075270 0.000000 0.000000 0.000000 -5.476453 -0.906169 -10.929553 12.026292 1.848051 -1.376662 0.000000 0.000000 0.000000
-21.062063 57.137097 -5.036898 3.112912 -0.184426 -0.482551 0.000000 0.000000 0.000000 -2.739413 0.748181 0.925075 -0.183495 0.775402 0.346055 -172.125006 -14.853832 -11.492668 2.933072 11.311545 1.519624 1.446968 -5.528395 0.249700 4.521608 -1.253778 -2.072749 0.000000 0.000000 0.000000 0.000000 0.000000 0.000000 2.933072 11.311545 1.519624 0.000000 0.000000 0.000000 0.000000 0.000000 0.000000 0.000000 0.000000 0.000000 0.000000 0.000000 0.000000 -9.793246 0.056201 8.232760 -9.999277 8.296465 4.558840 0.000000 0.000000 0.000000 -4.526468 -0.899623 -9.027050 12.044945 1.875758 -0.707131 0.000000 0.000000 0.000000
-23.903009 58.289886 -6.842659 2.057346 -0.124187 -0.317876 0.000000 0.000000 0.000000 -1.570725 0.502121 0.576640 -0.300387 0.473567 0.225603 -171.265466 -9.595417 -12.425779 1.492714 6.269135 1.361991 1.363891 -1.459602 0.507353 2.767222 -0.872987 -1.805924 0.000000 0.000000 0.000000 0.000000 0.000000 0.000000 1.492714 6.269135 1.361991 0.000000 0.000000 0.000000 0.000000 0.000000 0.000000 0.000000 0.000000 0.000000 0.000000 0.000000 0.000000 -7.239908 0.011099 5.752170 -0.140170 2.163235 2.785614 0.000000 0.000000 0.000000 -2.577672 -0.695670 -7.887847 12.472712 2.373717 1.306653 0.000000 0.000000 0.000000
-26.866985 59.670206 -9.114141 0.720562 -0.048423 -0.139249 0.000000 0.000000 0.000000 -0.407730 0.296286 0.302430 -0.235988 0.254503 0.121187 -170.567555 -7.421335 -11.983389 0.525799 1.988830 1.000029 1.460653 0.477395 0.084466 0.652451 -0.519621 -0.609894 0.000000 0.000000 0.000000 0.000000 0.000000 0.000000 0.525799 1.988830 1.000029 -0.005738 0.122911 0.114496 -0.101646 -0.008129 0.022426 0.000000 0.000000 0.000000 0.000000 0.000000 0.000000 -6.910211 0.197350 3.579078 2.646724 0.993432 0.533565 0.000000 0.000000 0.000000 -2.351221 -0.942508 -7.308134 9.538689 2.449319 4.593741 0.000000 0.000000 0.000000
